PathFileType	4	(X/Y/Z)	C:/Users/opensim2020/Desktop/walking_exp_matlab/subject03_walking06_straight_01.trc																																																																																																																																		
DataRate	CameraRate	NumFrames	NumMarkers	Units	OrigDataRate	OrigDataStartFrame	OrigNumFrames																																																																																																																														
100	100	8	44	mm	100	578	362																																																																																																																														
Frame#	Time	LFHD			RFHD			LBHD			RBHD			C7			T10			CLAV			STRN			RBAK			LSHO			LUPA			LELB			LFRM			LWRA			LWRB			LFIN			RSHO			RUPA			RELB			RFRM			RWRA			RWRB			RFIN			LASI			RASI			LPSI			RPSI			LTHI			LKNE			LTIB			LANK			LHEE			LTOE			RTHI			RKNE			RTIB			RANK			RHEE			RTOE			*39			*40			*41			*42			*43		
		X1	Y1	Z1	X2	Y2	Z2	X3	Y3	Z3	X4	Y4	Z4	X5	Y5	Z5	X6	Y6	Z6	X7	Y7	Z7	X8	Y8	Z8	X9	Y9	Z9	X10	Y10	Z10	X11	Y11	Z11	X12	Y12	Z12	X13	Y13	Z13	X14	Y14	Z14	X15	Y15	Z15	X16	Y16	Z16	X17	Y17	Z17	X18	Y18	Z18	X19	Y19	Z19	X20	Y20	Z20	X21	Y21	Z21	X22	Y22	Z22	X23	Y23	Z23	X24	Y24	Z24	X25	Y25	Z25	X26	Y26	Z26	X27	Y27	Z27	X28	Y28	Z28	X29	Y29	Z29	X30	Y30	Z30	X31	Y31	Z31	X32	Y32	Z32	X33	Y33	Z33	X34	Y34	Z34	X35	Y35	Z35	X36	Y36	Z36	X37	Y37	Z37	X38	Y38	Z38	X39	Y39	Z39	X40	Y40	Z40	X41	Y41	Z41	X42	Y42	Z42	X43	Y43	Z43	X44	Y44	Z44
																																																																																																																																					
136	1.35	-497.01074	1623.4043	1344.58618	-510.34119	1630.78711	1477.13599	-625.50549	1580.1394	1337.62634	-633.52222	1587.09363	1468.37891	-658.87543	1420.40637	1397.20508	-692.62646	1108.76758	1405.92236	-537.03448	1344.71643	1406.40198	-490.85651	1180.35327	1410.78406	-714.09296	1248.48669	1497.76563	-576.16241	1378.12585	1247.19702	-599.69269	1178.3761	1184.04187	-606.41467	1054.93054	1176.45142	-594.19708	924.79065	1178.25024	-589.24512	804.25159	1210.89294	-612.59625	812.89905	1159.54395	-613.50079	726.95715	1173.21289	-591.46088	1376.54211	1561.30713	-570.05225	1157.46008	1636.44812	-538.23993	1049.08923	1647.45569	-492.78134	920.0387	1643.71521	-442.75113	835.74744	1602.99988	-470.83704	821.86902	1647.26892	-433.41885	757.73877	1632.28467	-526.61841	946.7049	1299.17212	-541.2641	937.00562	1533.88257	-690.73462	972.09521	1337.73511	-696.8985	973.12054	1487.16199	-558.64545	645.62939	1256.14624	-527.91785	471.46707	1302.60449	-551.03717	278.24191	1302.85339	-536.12482	69.39278	1347.24182	-575.08917	35.46278	1383.33264	-383.07172	37.74541	1374.84973	-599.14868	636.43488	1575.69702	-583.82288	456.33588	1553.37256	-729.58246	330.54892	1553.00354	-892.02557	191.79054	1503.29358	-938.57996	209.24628	1449.02051	-848.08539	54.91267	1476.80676	-583.70795	1689.12256	1388.21753	NaN	NaN	NaN	NaN	NaN	NaN	NaN	NaN	NaN	NaN	NaN	NaN
137	1.36	-488.95749	1624.14587	1344.04822	-502.39188	1631.77942	1476.54565	-617.19391	1580.16919	1337.10901	-625.30896	1587.42029	1467.85754	-650.19147	1420.83459	1396.41614	-683.70056	1109.04944	1404.89856	-528.41522	1345.21924	1406.32434	-482.1814	1180.81738	1410.66199	-705.65332	1248.48096	1496.46362	-566.20911	1378.41211	1247.03357	-587.54755	1178.64038	1182.98889	-593.3111	1055.09143	1175.15894	-579.03223	925.21301	1177.53015	-572.41583	805.00214	1210.18628	-595.36346	813.01068	1158.6438	-595.26746	727.10114	1172.38733	-583.48737	1376.68091	1561.05603	-563.10547	1157.31543	1636.25195	-531.96936	1048.67749	1647.40649	-487.43857	919.26654	1643.81702	-437.74338	834.60895	1603.37683	-466.36209	820.90796	1647.57605	-429.83627	756.09442	1632.13306	-517.72144	946.66028	1298.46838	-532.72461	937.17316	1533.53967	-681.72266	972.19714	1336.68311	-688.32965	972.87793	1486.15063	-552.34705	645.948	1255.04016	-523.70459	471.32001	1301.70764	-548.62592	278.48157	1302.42664	-535.99597	69.41933	1347.27893	-575.12036	35.62083	1383.3186	-383.28738	37.27733	1374.95959	-585.92719	636.75018	1575.20361	-565.17303	457.08371	1553.62927	-711.52429	333.4711	1552.56982	-875.97729	197.30362	1503.73792	-922.7157	213.52763	1448.93518	-830.96844	60.26498	1480.56787	-577.13757	1690.15125	1388.05896	NaN	NaN	NaN	NaN	NaN	NaN	NaN	NaN	NaN	NaN	NaN	NaN
138	1.37	-480.86459	1624.82263	1343.50793	-494.40012	1632.71399	1476.05017	-608.88263	1580.22705	1336.68506	-617.0719	1587.74463	1467.39343	-641.42065	1421.20142	1395.74487	-674.80658	1109.32886	1403.92358	-519.79315	1345.73621	1406.32605	-473.56131	1181.23499	1410.65845	-697.56726	1248.47705	1495.12378	-556.36853	1378.50342	1246.97241	-575.1358	1178.66772	1182.08765	-579.54254	1055.19385	1173.9054	-563.56793	925.46118	1176.60461	-555.61017	805.4762	1209.48523	-578.01068	813.07532	1157.57764	-576.42224	727.28369	1171.47852	-575.58301	1376.61829	1560.9325	-556.13574	1156.99573	1635.98975	-525.69678	1048.07544	1647.46997	-482.1741	918.302	1644.06641	-432.74432	833.27948	1604.06482	-461.93744	819.73395	1647.87415	-425.95728	754.67676	1632.91455	-508.74823	946.84265	1297.7865	-524.57269	937.13153	1533.03101	-673.27289	972.44373	1335.86377	-679.83978	972.52496	1485.21765	-545.96509	646.43597	1254.06726	-519.61578	471.51895	1301.01416	-546.30981	278.72324	1302.04114	-535.88708	69.60196	1347.30823	-574.87134	35.46956	1383.26099	-383.09604	37.05857	1375.0636	-572.80212	637.39703	1574.77625	-546.66138	458.39807	1554.00378	-693.47125	336.61868	1551.93176	-858.8551	201.48552	1504.23376	-905.78967	216.67593	1448.81897	-812.47632	64.60443	1484.58618	-566.89178	1688.82214	1383.98279	NaN	NaN	NaN	NaN	NaN	NaN	NaN	NaN	NaN	NaN	NaN	NaN
139	1.38	-472.7196	1625.54211	1343.13989	-486.36649	1633.5874	1475.61377	-600.50873	1580.30054	1336.32422	-608.83673	1588.03174	1467.02917	-632.82452	1421.70605	1395.21436	-666.17151	1109.74695	1403.03271	-511.24872	1346.21313	1406.3468	-464.97232	1181.64197	1410.60034	-689.69446	1248.5011	1493.67114	-546.77783	1378.58704	1246.78723	-562.67743	1178.70325	1181.34045	-565.92615	1055.25769	1172.69373	-547.91278	925.72345	1175.69177	-538.10486	806.31494	1208.94604	-560.14447	813.13104	1156.60388	-557.14471	727.47931	1170.60339	-567.72406	1376.41528	1560.90564	-549.26312	1156.48083	1635.70752	-519.39264	1047.39746	1647.49451	-476.90192	917.21631	1644.28247	-427.88751	831.81818	1604.75928	-457.59366	818.43811	1648.30676	-422.16248	752.80261	1633.18945	-499.75424	947.20923	1296.96069	-516.55933	937.06433	1532.41113	-664.88977	972.5849	1335.21826	-671.44995	972.2608	1484.41992	-539.33459	646.78015	1254.00012	-515.33978	471.70792	1300.50586	-543.88708	278.98355	1301.7688	-535.76764	69.68169	1347.32458	-574.87689	35.59006	1383.25256	-382.68655	37.09579	1375.24255	-559.54254	638.33313	1574.45667	-528.48615	460.23267	1554.28162	-675.03601	339.25992	1551.76282	-840.89825	204.55208	1504.73206	-888.16821	218.60381	1448.6543	-793.02838	68.32431	1488.31433	NaN	NaN	NaN	NaN	NaN	NaN	NaN	NaN	NaN	NaN	NaN	NaN	NaN	NaN	NaN
140	1.39	-464.54626	1626.15503	1342.83276	-478.34827	1634.38733	1475.33069	-592.21918	1580.38782	1336.05066	-600.59485	1588.30713	1466.72034	-624.01996	1422.23694	1394.7467	-657.55914	1110.17944	1402.23376	-502.82187	1346.56738	1406.31018	-456.5704	1182.01697	1410.32104	-681.7514	1248.47559	1492.08533	-537.45374	1378.61426	1246.64221	-550.55457	1178.67004	1180.75427	-551.84247	1055.28687	1171.69165	-531.97504	926.06232	1174.94055	-520.95862	806.88763	1208.35352	-542.18488	813.30096	1155.61694	-537.3537	727.87079	1169.55688	-559.98035	1376.11841	1560.93738	-542.43842	1155.95288	1635.41309	-513.3067	1046.63928	1647.25696	-471.74649	916.07062	1644.53552	-423.10934	830.32983	1605.46375	-453.35565	817.12128	1648.65527	-418.44608	751.62848	1633.96619	-491.89426	947.30536	1296.07202	-508.60123	937.05396	1531.5802	-656.51727	972.96185	1334.797	-662.96027	972.1228	1483.86462	-532.82397	647.159	1254.3949	-510.71649	471.92938	1300.46814	-541.45734	279.20081	1301.67822	-535.61188	69.83346	1347.41162	-574.91046	35.71185	1383.26526	-382.51123	36.92367	1375.4165	-546.02527	639.3465	1574.23694	-510.5556	462.34662	1554.42688	-656.34448	341.39688	1551.99048	-822.32288	206.68448	1505.16418	-869.97693	219.35858	1448.65918	-772.44818	71.28981	1491.49951	-551.15118	1689.37854	1383.02869	NaN	NaN	NaN	NaN	NaN	NaN	NaN	NaN	NaN	NaN	NaN	NaN
141	1.4	-456.40167	1626.7843	1342.60815	-470.22052	1635.10596	1475.08777	-583.86908	1580.49609	1335.80811	-592.35425	1588.55579	1466.50488	-615.48029	1422.87219	1394.52148	-649.2135	1110.68127	1401.62695	-494.46054	1346.94336	1406.18213	-448.18277	1182.38342	1409.98071	-673.89215	1248.4801	1490.62427	-528.41644	1378.76917	1246.56885	-538.05469	1178.82654	1180.35583	-537.63776	1055.50928	1170.93542	-515.83374	926.58337	1174.33337	-502.58658	807.52478	1206.37415	-523.93823	813.73254	1154.66394	-517.06439	728.64258	1168.4845	-552.3725	1375.91113	1561.01001	-535.67206	1155.44067	1635.05896	-506.84946	1045.95728	1647.24084	-466.6525	915.00391	1644.77661	-418.50052	828.9093	1606.20227	-449.54578	815.98853	1649.03259	-414.5918	750.27411	1634.79004	-483.62143	947.6427	1294.74219	-498.2626	938.11176	1531.80884	-648.30731	973.27588	1334.552	-654.40607	972.27338	1483.47168	-525.80035	647.39459	1254.89795	-506.01532	471.8924	1300.70508	-539.12402	279.38367	1301.66516	-535.37988	69.807	1347.74841	-575.01379	36.00003	1383.49121	-382.33191	36.7252	1375.61401	-532.3606	640.44958	1574.07117	-492.75925	464.57468	1554.5304	-637.49084	343.08365	1552.28845	-803.02899	207.67053	1505.66138	-851.37256	218.87329	1449.01392	-750.40881	73.73544	1494.25916	-543.42548	1689.89697	1382.92249	NaN	NaN	NaN	NaN	NaN	NaN	NaN	NaN	NaN	NaN	NaN	NaN
142	1.41	-448.26169	1627.23755	1342.42651	-462.12247	1635.65527	1474.86279	-575.52753	1580.55786	1335.66504	-584.22113	1588.8009	1466.46387	-606.98273	1423.19006	1394.24634	-640.68738	1111.09546	1401.01282	-486.0025	1347.37061	1406.23828	-439.7634	1182.72644	1409.74048	-666.05792	1248.55969	1489.23047	-519.51556	1379.01917	1246.5105	-525.87231	1179.21021	1180.19287	-523.19556	1056.03442	1170.26794	-499.53137	927.44287	1173.84937	-485.30441	808.90265	1206.15735	-505.20032	814.39044	1154.11523	-496.12863	729.72296	1167.38696	-544.73926	1375.70203	1561.07043	-529.11951	1155.0011	1634.79688	-501.13339	1045.39966	1646.88135	-461.65012	914.07983	1645.00293	-414.00089	827.57178	1606.89575	-445.29495	814.80804	1649.52368	-410.68042	748.99799	1635.70837	-475.33658	948.17633	1293.71252	-489.48465	938.93237	1531.03345	-639.99884	973.66742	1334.47192	-645.79846	972.59357	1483.24402	-518.6524	647.7489	1255.38623	-501.14731	471.78619	1300.88489	-536.79565	279.5274	1301.80103	-535.24036	70.01148	1347.86914	-574.95599	36.08015	1383.64136	-382.15219	36.53862	1375.78418	-518.75031	641.71796	1573.96509	-475.21609	466.78915	1554.43127	-618.65253	344.47961	1552.31421	-783.08948	207.63986	1506.20544	-832.1897	217.25989	1449.66321	-727.09436	75.39484	1496.34912	-535.5191	1689.85535	1382.67053	NaN	NaN	NaN	NaN	NaN	NaN	NaN	NaN	NaN	NaN	NaN	NaN
143	1.42	-440.0965	1627.63379	1342.25574	-453.96634	1636.1377	1474.7373	-567.24799	1580.64392	1335.59216	-575.83917	1588.85352	1466.22693	-598.6228	1423.61255	1394.01343	-632.53894	1111.48511	1400.56409	-477.57562	1347.69629	1406.28638	-431.58859	1183.00122	1409.47351	-658.32977	1248.70837	1488.0387	-510.76709	1379.44775	1246.4353	-513.41986	1179.8324	1179.80103	-508.88312	1056.73096	1169.8999	-483.15256	928.64349	1173.604	-467.98123	810.39606	1206.0658	-486.56815	815.70844	1153.14905	-475.74844	731.39288	1166.42493	-537.3772	1375.73425	1561.05444	-522.92004	1154.7218	1634.40747	-494.82486	1044.9939	1646.83801	-456.80768	913.31036	1645.21521	-409.59692	826.55231	1607.67285	-441.59326	813.97809	1649.86047	-406.7543	747.9375	1636.6864	-467.3345	948.58142	1292.71509	-480.62036	939.92572	1530.20642	-631.82208	974.00073	1334.44531	-637.20941	973.12103	1483.11768	-511.32352	647.78351	1255.72498	-496.83142	471.61871	1301.15405	-534.49603	279.76001	1301.89087	-535.07501	70.23215	1347.97424	-574.95319	36.26451	1383.77673	-381.98755	36.41528	1375.89417	-504.23096	642.71014	1573.31714	-457.92307	469.01199	1554.11597	-599.77386	345.4541	1551.97522	-762.59363	206.56311	1506.71338	-812.49896	214.62354	1450.32959	-702.85327	76.19714	1497.74805	-527.47162	1690.23657	1382.40991	NaN	NaN	NaN	NaN	NaN	NaN	NaN	NaN	NaN	NaN	NaN	NaN
